Genre:Action | Drama | Thriller
Language:English  http://www.imdb.com/title/tt1243957/
Source:BluRay.720p.x264.DTS.MySiLU
Subtitles:Romana


Format : MPEG-4
Format profile : Base Media
Codec ID : isom
File size : 2.34 GiB
Duration : 1h 43mn
Overall bit rate : 3 232 Kbps


Video
Format profile : High@L4.1
Format settings, CABAC : Yes
Format settings, ReFrames : 3 frames
Codec ID : avc1
Codec ID/Info : Advanced Video Coding
Duration : 1h 43mn
Bit rate mode : Variable
Bit rate : 2 821 Kbps
Maximum bit rate : 11.6 Mbps
Width : 1 280 pixels
Height : 544 pixels
Display aspect ratio : 2.35:1
Frame rate mode : Constant
Frame rate : 23.976 fps
Color space : YUV
Chroma subsampling : 4:2:0
Bit depth : 8 bits
Scan type : Progressive
Bits/(Pixel*Frame) : 0.169
Stream size : 2.01 GiB (86%)
Writing library : x264


Audio
ID : 2
Format : AAC
Format/Info : Advanced Audio Codec
Format version : Version 4
Format profile : LC
Format settings, SBR : No
Codec ID : 40
Duration : 1h 43mn
Bit rate mode : Variable
Bit rate : 444 Kbps
Maximum bit rate : 533 Kbps
Channel(s) : 6 channels
Channel positions : Front: L C R, Side: L R, LFE
Sampling rate : 48.0 KHz
Stream size : 328 MiB (14%)


Plot:
Revolves around Frank, an American tourist visiting Italy to mend a broken heart. Elise is an extraordinary woman who deliberately crosses his path
 
http://www.postimg.com/29000/28582.jpg 
http://www.postimg.com/29000/28583.jpg 
http://www.postimg.com/29000/28584.jpg 
http://www.postimg.com/29000/28585.jpg 
http://www.postimg.com/29000/28588.jpg 
http://www.postimg.com/29000/28587.jpg